<?xml version="1.0" standalone="no"?>
<!DOCTYPE svg PUBLIC "-//W3C//DTD SVG 1.1//EN" "http://www.w3.org/Graphics/SVG/1.1/DTD/svg11.dtd" >
<svg xmlns="http://www.w3.org/2000/svg">
<metadata></metadata>
<defs>
<font id="metaplusnormalitalic" horiz-adv-x="1038" >
<font-face units-per-em="2048" ascent="1638" descent="-410" />
<missing-glyph horiz-adv-x="460" />
<glyph horiz-adv-x="2048" />
<glyph horiz-adv-x="2048" />
<glyph unicode="&#xd;" horiz-adv-x="460" />
<glyph unicode=" "  horiz-adv-x="460" />
<glyph unicode="&#x09;" horiz-adv-x="460" />
<glyph unicode="&#xa0;" horiz-adv-x="460" />
<glyph unicode="!" horiz-adv-x="544" d="M68 113q0 53 36.5 89t88.5 36q51 0 87.5 -36t36.5 -87q0 -53 -36.5 -91t-87.5 -38t-88 36.5t-37 90.5zM190 406l175 999l206 27l-258 -1026h-123z" />
<glyph unicode="&#x22;" horiz-adv-x="1062" d="M410 958l104 492h148l-105 -492h-147zM711 958l104 492h148l-105 -492h-147z" />
<glyph unicode="#" horiz-adv-x="1138" d="M66 436v135h237l107 312h-187v135h236l153 432h138l-154 -432h258l154 432h137l-154 -432h187v-135h-234l-108 -312h184v-135h-236l-153 -436h-137l153 436h-258l-153 -436h-138l154 436h-186zM440 571h258l109 312h-258z" />
<glyph unicode="$" horiz-adv-x="1134" d="M25 84l81 133q147 -100 316 -106l121 565l-51 20q-240 96 -240 332q0 164 127 276.5t326 129.5l36 170h121l-37 -170q187 -17 322 -119l-88 -125q-129 96 -262 106l-107 -497l68 -29q231 -98 231 -352q0 -170 -125 -289q-129 -125 -350 -149l-41 -199h-121l41 192 q-207 2 -368 111zM428 1063q0 -80 33 -127t119 -88l96 444q-111 -16 -179.5 -78.5t-68.5 -150.5zM545 119q123 25 195.5 99.5t72.5 174.5q0 84 -35 137.5t-125 96.5z" />
<glyph unicode="%" horiz-adv-x="1701" d="M184 973q0 190 117 318t295 128q131 0 203 -69q65 -67 65 -176q0 -207 -116.5 -331t-298.5 -124q-264 0 -265 254zM326 977q0 -145 153 -146q117 0 183 95q63 88 63 229q0 152 -156 152q-121 0 -184 -95q-59 -86 -59 -235zM350 0l985 1405h135l-985 -1405h-135zM942 233 q0 190 117 318.5t295 128.5q131 0 202 -70q66 -67 66 -176q0 -207 -116.5 -330.5t-299.5 -123.5q-264 0 -264 253zM1083 238q0 -145 154 -146q117 0 182 94q64 89 64 230q0 152 -156 151q-121 0 -184 -94q-59 -86 -60 -235z" />
<glyph unicode="&#x26;" horiz-adv-x="1427" d="M94 279q0 274 367 426q-127 137 -127 268q0 147 117 256q125 115 317 114q141 0 228 -70.5t87 -178.5q0 -213 -239 -336l-135 -70l258 -323q53 63 108 317h142q-53 -270 -170 -428l206 -254h-211l-108 133q-168 -164 -432 -164q-190 0 -299 82t-109 228zM272 305 q0 -90 66 -147q70 -63 190 -64q211 0 338 131l-323 393q-143 -61 -207 -132.5t-64 -180.5zM510 1030q0 -78 20.5 -120t100.5 -130q174 76 231 156q49 67 49 143q0 68 -46 107t-120 39q-82 0 -153 -51q-82 -59 -82 -144z" />
<glyph unicode="'" horiz-adv-x="569" d="M313 958l105 492h147l-104 -492h-148z" />
<glyph unicode="(" horiz-adv-x="696" d="M180 254q0 188 45 403q96 465 340 705q152 150 334 215l31 -92q-242 -125 -336 -266q-127 -193 -203 -549q-53 -250 -53 -420q0 -338 217 -481l-59 -86q-147 74 -230 217q-86 152 -86 354z" />
<glyph unicode=")" horiz-adv-x="696" d="M-209 -213q242 125 336 266q127 193 203 549q53 250 53 420q0 338 -217 481l59 78q147 -74 230 -217q86 -151 86 -354q0 -188 -45 -404q-96 -465 -340 -704q-152 -150 -334 -215z" />
<glyph unicode="*" horiz-adv-x="909" d="M193 1124l38 119l291 -98v305h123v-305l291 98l39 -119l-289 -98l182 -244l-100 -77l-184 251l-178 -251l-103 77l178 244z" />
<glyph unicode="+" horiz-adv-x="1024" d="M63 438l33 148h361l78 364h155l-78 -364h361l-33 -148h-358l-78 -364h-156l78 364h-363z" />
<glyph unicode="," horiz-adv-x="546" d="M-27 -203q133 59 177 183q-45 0 -76 37.5t-31 88.5q0 68 43 109t111 41q61 0 103 -43t42 -111q0 -139 -121 -264q-76 -78 -194 -131z" />
<glyph unicode="-" horiz-adv-x="618" d="M115 469l32 156h392l-33 -156h-391z" />
<glyph unicode="." horiz-adv-x="544" d="M57 115q0 57 39 96t97 39q59 0 99 -39t40 -96t-41 -99.5t-96 -42.5q-57 0 -97.5 41t-40.5 101z" />
<glyph unicode="/" horiz-adv-x="546" d="M-63 -303l923 1853h135l-923 -1853h-135z" />
<glyph unicode="0" horiz-adv-x="1095" d="M82 326q0 145 56.5 303.5t144.5 251.5q156 162 387 161q178 0 272 -97t94 -273q0 -156 -63.5 -318t-161.5 -252q-152 -137 -369 -137q-360 0 -360 361zM250 332q0 -233 225 -234q137 0 225 82q78 72 122 209t44 289q0 231 -225 231q-143 0 -233 -90q-70 -70 -117 -225 q-41 -139 -41 -262z" />
<glyph unicode="1" horiz-adv-x="827" d="M121 0l29 129h188l151 715q-178 -102 -301 -148l-22 105l401 237h125l-192 -909h188l-29 -129h-538z" />
<glyph unicode="2" horiz-adv-x="1095" d="M53 0l29 129q154 102 274 186q287 201 353 273q84 90 84 174q0 160 -183 160q-137 0 -346 -146l-53 94q258 190 469 191q139 0 225 -70.5t86 -183.5q0 -158 -166 -299q-154 -131 -346 -252l-213 -133q98 8 213 8h418l-61 -131h-783z" />
<glyph unicode="3" horiz-adv-x="1095" d="M-37 -250q39 -6 105 -6q317 0 469 117q74 55 121 136t47 153q0 158 -130 198q-66 20 -243 21h-21l25 114h18q219 0 277 23q80 31 125 108q41 68 41 142q0 166 -203 166q-147 0 -350 -127l-56 90q246 170 463 170q143 0 233.5 -77t90.5 -194q0 -125 -89.5 -228 t-228.5 -138q104 -20 168 -101q57 -74 58 -167q0 -217 -207 -363q-225 -160 -598 -160q-61 0 -101 6z" />
<glyph unicode="4" horiz-adv-x="1095" d="M-12 8l26 127l668 922h178l-553 -766q-49 -68 -125 -162q43 6 80 6h363l14 60q31 125 47 184l82 287l135 39l-88 -412q-20 -98 -37 -160q41 4 70 4h100l-28 -129h-113q-20 0 -55 2q-2 -16 -11 -59l-63 -303l-168 -47l70 327q4 23 18 82q-57 -2 -82 -2h-528z" />
<glyph unicode="5" horiz-adv-x="1095" d="M-14 -236q57 -29 147 -28q188 0 339 99t183 253q8 39 9 74q0 100 -68 156.5t-188 56.5q-160 0 -271 -45l213 690h606l-53 -135h-442l-121 -398q90 10 147 11q156 0 255.5 -89.5t99.5 -232.5q0 -43 -11 -88q-47 -221 -253 -348q-190 -119 -443 -119q-76 0 -145 21z" />
<glyph unicode="6" horiz-adv-x="1095" d="M94 381q0 387 320 688q264 250 633 352l20 -116q-365 -106 -561 -340q-90 -109 -154 -252q137 106 322 106q135 0 229 -90q100 -96 101 -246q0 -227 -156 -370.5t-377 -143.5q-170 0 -273.5 115t-103.5 297zM272 365q0 -121 61.5 -196t164.5 -75q143 0 232 102.5 t89 274.5q0 225 -205 225q-139 0 -299 -108q-43 -121 -43 -223z" />
<glyph unicode="7" horiz-adv-x="1095" d="M43 -379q88 260 399 703q268 379 469 559q-123 -4 -190 -4h-541l60 135h831l-22 -156q-94 -109 -177 -209q-197 -240 -301 -393q-223 -326 -321 -584z" />
<glyph unicode="8" horiz-adv-x="1095" d="M55 289q0 291 373 422q-180 92 -180 254q0 174 138 285.5t366 111.5q156 0 249 -76q88 -74 89 -182q-1 -240 -355 -385l96 -49q158 -80 158 -254q0 -180 -145 -312q-156 -139 -387 -139q-188 0 -295 89t-107 235zM221 295q0 -96 66.5 -152.5t185.5 -56.5q168 0 264 90 q86 82 86 207q0 82 -45 125q-53 53 -248 149q-139 -49 -221 -139q-88 -98 -88 -223zM410 999q0 -74 47 -121t176 -108q297 127 297 322q0 70 -59.5 111.5t-159.5 41.5q-135 0 -218 -64.5t-83 -181.5z" />
<glyph unicode="9" horiz-adv-x="1095" d="M-80 -319q281 53 510 217.5t313 371.5q-137 -106 -321 -106q-131 0 -225.5 105.5t-94.5 256.5q0 227 160 379q156 145 375 146q170 0 273.5 -115t103.5 -297q0 -184 -76 -363q-80 -193 -236 -337q-309 -291 -718 -361zM287 539q0 -119 52 -185.5t142 -66.5q139 0 299 108 q56 154 56 260q0 121 -61.5 196t-164.5 75q-141 0 -232 -107.5t-91 -279.5z" />
<glyph unicode=":" horiz-adv-x="618" d="M96 115q0 57 39 96t96 39q59 0 99.5 -39t40.5 -96t-41 -99.5t-97 -42.5q-57 0 -97 41t-40 101zM233 762q0 57 39 96t97 39q59 0 99 -39t40 -96t-41 -99t-96 -42q-57 0 -97.5 40.5t-40.5 100.5z" />
<glyph unicode=";" horiz-adv-x="620" d="M16 -203q133 59 177 183q-45 0 -76 37.5t-31 88.5q0 68 43 109t111 41q61 0 103 -43t42 -111q0 -145 -121 -264q-82 -82 -194 -131zM223 762q0 57 39 96t96 39q59 0 99.5 -39t40.5 -96t-41 -99t-97 -42q-57 0 -97 40.5t-40 100.5z" />
<glyph unicode="&#x3c;" horiz-adv-x="2338" d="M55 567q0 41 29 71t68 30q41 0 69.5 -30t28.5 -71t-28.5 -70.5t-67.5 -29.5q-41 0 -70 29.5t-29 70.5zM174 326q0 41 28.5 70.5t69.5 29.5q39 0 68 -29.5t29 -70.5t-29 -71t-70 -30q-39 0 -67.5 30t-28.5 71zM276 809q0 41 29 70.5t68 29.5q41 0 69.5 -29.5t28.5 -70.5 t-28.5 -70.5t-67.5 -29.5q-41 0 -70 29.5t-29 70.5zM293 84q0 41 28.5 69.5t69.5 28.5t68.5 -28.5t27.5 -69.5t-28.5 -70.5t-69.5 -29.5q-39 0 -67.5 29.5t-28.5 70.5zM348 561q0 41 29 71t67 30q41 0 70 -29t29 -70t-29 -70.5t-68 -29.5q-41 0 -69.5 28.5t-28.5 69.5z M412 -158q0 41 28.5 70t69.5 29t68.5 -29t27.5 -70t-29.5 -70.5t-70.5 -29.5q-39 0 -66.5 29.5t-27.5 70.5zM498 1051q0 41 28.5 70.5t67.5 29.5q41 0 69.5 -29.5t28.5 -70.5t-28.5 -71t-67.5 -30q-41 0 -69.5 30t-28.5 71zM645 561q0 41 28.5 71t67.5 30q41 0 70 -29 t29 -70t-29 -70.5t-68 -29.5q-41 0 -69.5 28.5t-28.5 69.5zM719 1292q0 41 27.5 71t66.5 30q41 0 70.5 -30t29.5 -71t-28.5 -70.5t-67.5 -29.5q-41 0 -69.5 29.5t-28.5 70.5zM940 561q0 41 28.5 71t67.5 30q41 0 71 -29t30 -70t-29 -70.5t-70 -29.5q-39 0 -68.5 29.5 t-29.5 68.5zM1237 561q0 41 28.5 71t67.5 30q41 0 70 -29t29 -70t-29 -70.5t-68 -29.5q-41 0 -69.5 28.5t-28.5 69.5zM1534 561q0 41 28.5 71t67.5 30q41 0 70 -29t29 -70t-29 -70.5t-68 -29.5q-41 0 -69.5 28.5t-28.5 69.5zM1829 561q0 41 28.5 71t67.5 30q41 0 70.5 -29 t29.5 -70t-28.5 -70.5t-69.5 -29.5q-39 0 -68.5 29.5t-29.5 68.5zM2126 561q0 41 28.5 71t67.5 30q41 0 69.5 -29t28.5 -70t-28.5 -70.5t-67.5 -29.5q-41 0 -69.5 28.5t-28.5 69.5z" />
<glyph unicode="=" horiz-adv-x="1363" d="M129 393l29 135h1069l-29 -135h-1069zM197 713l28 135h1069l-28 -135h-1069z" />
<glyph unicode="&#x3e;" horiz-adv-x="2338" d="M53 563q0 41 29 70t70 29q39 0 67.5 -30t28.5 -71t-29 -69.5t-69 -28.5q-39 0 -68 29.5t-29 70.5zM348 563q0 41 30 70t71 29q39 0 67.5 -30t28.5 -71q0 -39 -29 -68.5t-70 -29.5t-69.5 29.5t-28.5 70.5zM645 563q0 41 30 70t68 29q39 0 68 -30t29 -71t-29 -69.5 t-70 -28.5q-39 0 -67.5 29.5t-28.5 70.5zM942 563q0 41 28.5 70t69.5 29q39 0 68 -30t29 -71t-29 -69.5t-70 -28.5q-39 0 -67.5 29.5t-28.5 70.5zM1237 563q0 41 29.5 70t70.5 29q39 0 68 -30t29 -71q0 -39 -29 -68.5t-70 -29.5t-69.5 29.5t-28.5 70.5zM1460 -158 q0 41 28 70t68 29q41 0 70 -29t29 -70t-29 -70.5t-67 -29.5q-41 0 -70 29.5t-29 70.5zM1534 563q0 41 29.5 70t68.5 29t68 -30t29 -71t-29 -69.5t-70 -28.5q-39 0 -67.5 29.5t-28.5 70.5zM1681 84q0 41 28 69.5t69 28.5t69.5 -28.5t28.5 -69.5t-28.5 -70.5t-67.5 -29.5 q-41 0 -70 29.5t-29 70.5zM1767 1292q0 41 29 71t70 30q39 0 67.5 -30t28.5 -71t-28.5 -70.5t-69.5 -29.5q-39 0 -68 29.5t-29 70.5zM1831 563q0 41 28.5 70t69.5 29q39 0 67.5 -30t28.5 -71t-28.5 -69.5t-69.5 -28.5q-39 0 -67.5 29.5t-28.5 70.5zM1886 1051q0 41 29 70.5 t70 29.5q39 0 67.5 -29.5t28.5 -70.5t-29 -71t-70 -30q-39 0 -67.5 30t-28.5 71zM1903 326q0 41 28.5 70.5t67.5 29.5q41 0 69.5 -29.5t28.5 -70.5t-28.5 -71t-67.5 -30q-41 0 -69.5 30t-28.5 71zM2005 809q0 41 28.5 70.5t69.5 29.5q39 0 68 -29.5t29 -70.5t-29 -70.5 t-70 -29.5q-39 0 -67.5 29.5t-28.5 70.5zM2124 567q0 41 28.5 71t69.5 30q39 0 67.5 -30t28.5 -71t-28.5 -70.5t-69.5 -29.5q-39 0 -67.5 29.5t-28.5 70.5z" />
<glyph unicode="?" horiz-adv-x="731" d="M203 109q0 53 36.5 88.5t88.5 35.5q51 0 88 -35.5t37 -86.5q0 -53 -37 -91t-88 -38t-88 36.5t-37 90.5zM240 1298q186 125 370 125q301 0 301 -254q0 -184 -256 -354q-113 -74 -156.5 -157t-43.5 -203h-138q-6 299 236 448q190 117 190 227q0 154 -165 154 q-131 0 -285 -94z" />
<glyph unicode="@" horiz-adv-x="1638" d="M127 725q0 317 225.5 539.5t542.5 222.5q287 0 488.5 -178.5t201.5 -448.5q0 -248 -168 -428q-150 -164 -311 -164q-123 0 -131 135h-4q-117 -135 -256 -135q-129 0 -209 91.5t-80 226.5q0 225 131 397q139 182 346 182q166 0 227 -168h5l36 129h134l-172 -579 q-16 -57 -19 -103q-2 -41 49 -41q100 0 193.5 140.5t93.5 306.5q0 231 -172 383q-162 143 -385 143q-264 0 -447.5 -192.5t-183.5 -458.5q0 -272 187.5 -461.5t443.5 -189.5q152 0 293 67.5t225 180.5h129q-100 -166 -273 -262.5t-374 -96.5q-336 0 -551 217t-215 545z M575 600q0 -84 50.5 -140.5t126.5 -56.5q125 0 225 154q92 142 92 281q0 78 -50 135t-116 57q-135 0 -235 -147q-92 -135 -93 -283z" />
<glyph unicode="A" horiz-adv-x="1169" d="M-94 0l768 1405h219l166 -1405h-182l-41 432h-525l-227 -432h-178zM385 569h436l-71 693q-25 -53 -88 -175z" />
<glyph unicode="B" horiz-adv-x="1208" d="M86 0l299 1405h363q430 0 430 -307q0 -270 -320 -355q240 -43 240 -299q0 -184 -180 -331q-82 -66 -179.5 -89.5t-289.5 -23.5h-363zM276 137h277q162 0 254 74q106 86 106 226v5q-2 109 -55 160q-66 59 -221 60h-248zM418 801h254q143 0 223 61q94 74 94 207 q0 195 -254 195h-219z" />
<glyph unicode="C" horiz-adv-x="1097" d="M125 485q0 184 63 367q70 197 191 332q214 239 504 239h2h3q194 0 320 -116l-94 -105q-100 86 -248 86q-246 0 -401 -241q-76 -119 -121 -276t-45 -294q0 -170 85 -264t247 -94q145 0 293 90l65 -117q-201 -115 -416 -115q-209 0 -328.5 138.5t-119.5 369.5z" />
<glyph unicode="D" horiz-adv-x="1280" d="M86 0l299 1405h301q158 0 245 -22.5t161 -86.5q139 -118 139 -409q0 -182 -88 -396.5t-207 -320.5q-188 -170 -483 -170h-367zM285 139h149q287 0 406 146q98 121 157 297q52 155 52 284q0 186 -56 275q-49 76 -121 104q-61 23 -180 23h-168z" />
<glyph unicode="E" horiz-adv-x="1050" d="M86 0l299 1405h768l-53 -139h-576l-96 -461h481l-32 -146h-482l-108 -514h618l-31 -145h-788z" />
<glyph unicode="F" horiz-adv-x="919" d="M86 0l299 1405h739l-57 -139h-543l-96 -461h451l-31 -137h-451l-141 -668h-170z" />
<glyph unicode="G" horiz-adv-x="1243" d="M129 475q0 209 74 406q78 205 215 342q194 194 474 194h3q217 0 350 -131l-84 -104q-125 100 -291 100q-217 0 -348 -162q-94 -117 -153 -305q-57 -178 -58 -342q0 -172 94.5 -266t249.5 -94q135 0 236 55l90 428h-283v139h471l-139 -655q-186 -106 -420 -107 q-221 0 -351 141.5t-130 360.5z" />
<glyph unicode="H" horiz-adv-x="1284" d="M86 0l299 1405h164l-125 -588h592l125 588h168l-299 -1405h-168l145 680h-592l-145 -680h-164z" />
<glyph unicode="I" horiz-adv-x="548" d="M86 0l299 1405h164l-299 -1405h-164z" />
<glyph unicode="J" horiz-adv-x="546" d="M-139 -158q129 49 196 138q49 66 90 256l248 1169h168l-248 -1165q-49 -231 -118 -322q-96 -123 -277 -180z" />
<glyph unicode="K" horiz-adv-x="1169" d="M66 0l299 1405h170l-299 -1405h-170zM401 743l729 707l127 -92l-663 -627l405 -706l-176 -56z" />
<glyph unicode="L" horiz-adv-x="952" d="M86 0l299 1405h168l-268 -1264h555l-54 -141h-700z" />
<glyph unicode="M" horiz-adv-x="1636" d="M33 0l422 1405h245l62 -918q5 -74 5 -143q0 -52 -3 -102q33 80 100 229l463 934h248l-178 -1405h-168l137 1030q10 84 41 240q-39 -92 -102 -221l-525 -1049h-143l-66 997q-12 186 -12 275q-25 -94 -74 -273l-290 -999h-162z" />
<glyph unicode="N" horiz-adv-x="1310" d="M86 0l299 1405h195l276 -897q39 -129 68 -295q16 113 73 428l156 764h166l-299 -1405h-176l-269 860q-49 158 -88 338q-12 -100 -61 -383l-166 -815h-174z" />
<glyph unicode="O" horiz-adv-x="1353" d="M137 471q0 223 78 440q78 211 199 334q182 184 465 185q209 0 324.5 -124.5t115.5 -351.5q0 -260 -84 -487q-92 -242 -256 -368t-404 -126q-215 0 -327 136q-111 129 -111 362zM322 437q0 -335 290 -335q164 0 287 121q100 100 172 332q66 219 66 416q0 323 -285 323h-2 q-215 0 -336 -164q-192 -259 -192 -693z" />
<glyph unicode="P" horiz-adv-x="1171" d="M86 0l299 1405h365q225 0 335 -98q93 -85 93 -228q0 -260 -197 -417q-129 -102 -367 -103h-245l-119 -559h-164zM397 696h236q154 0 235 76q127 116 127 268q0 115 -65 168q-72 55 -234 56h-178z" />
<glyph unicode="Q" horiz-adv-x="1353" d="M135 471q0 227 75 435t202 339q180 184 465 185q209 0 324.5 -124.5t115.5 -351.5q0 -260 -84 -487q-92 -242 -254 -367q-72 -55 -156 -90q70 -25 166 -86q90 -57 205 -57q55 0 86 10l-49 -110q-45 -20 -125 -21q-102 0 -277 107q-164 100 -266 120q-209 2 -321 138 q-106 129 -107 360zM319 432q0 -330 291 -330q164 0 287 121q100 100 172 332q66 219 66 416q0 323 -285 323h-2q-215 0 -336 -164q-82 -111 -139 -323q-53 -203 -54 -375z" />
<glyph unicode="R" horiz-adv-x="1169" d="M84 0l299 1405h307q229 0 334.5 -79t105.5 -249q0 -195 -135 -319.5t-327 -124.5h-21q111 -111 217 -326q80 -160 117 -282l-147 -50q-33 80 -118 263.5t-175 310.5q-37 51 -68 66.5t-86 17.5l-135 -633h-168zM412 737h149q186 0 270 72q121 103 121 238q0 115 -63.5 166 t-204.5 51h-162z" />
<glyph unicode="S" horiz-adv-x="1134" d="M25 84l81 133q152 -106 336 -106q166 0 266.5 79.5t100.5 202.5q0 92 -39 145.5t-152 100.5l-126 53q-240 100 -240 336q0 178 147.5 293t370.5 115q219 0 377 -121l-88 -125q-149 108 -306 108h-3q-139 0 -228.5 -66.5t-89.5 -168.5q0 -88 37 -135t141 -92l148 -64 q231 -100 231 -354q0 -190 -153 -314q-160 -131 -424 -131q-219 0 -387 111z" />
<glyph unicode="T" horiz-adv-x="1026" d="M213 1264l31 141h930l-41 -141h-381l-269 -1264h-161l268 1264h-377z" />
<glyph unicode="U" horiz-adv-x="1247" d="M158 273q0 103 18 190l201 942h166l-191 -899q-31 -145 -30 -215q0 -172 247 -172q182 0 267 88q70 72 104 239l203 959h166l-207 -977q-33 -156 -67 -225.5t-109 -124.5q-139 -102 -375 -103q-180 0 -283 72q-110 77 -110 226z" />
<glyph unicode="V" horiz-adv-x="1173" d="M217 1405h174l107 -901q15 -137 15 -249q0 -34 -1 -65q33 72 147 293l498 922h180l-780 -1405h-166z" />
<glyph unicode="W" horiz-adv-x="1675" d="M252 1405h172l4 -821q0 -141 -16 -428q66 172 168 407l364 842h191l8 -815q1 -82 1 -150q0 -204 -9 -284q63 174 174 434l348 815h176l-621 -1405h-219l-8 780v55q0 189 12 345q-66 -178 -155 -387l-340 -793h-217z" />
<glyph unicode="X" horiz-adv-x="1099" d="M-88 0l590 754l-248 651h186l183 -510l370 510h205l-510 -672l295 -733h-192l-228 604l-446 -604h-205z" />
<glyph unicode="Y" horiz-adv-x="1099" d="M190 1405h199l152 -537q31 -106 39 -157q45 70 108 157l385 537h201l-639 -858l-117 -547h-174l119 557z" />
<glyph unicode="Z" horiz-adv-x="991" d="M-12 0v129l821 1001q74 90 119 136q-39 -2 -146 -2h-524l57 141h803v-133l-803 -996q-37 -45 -114 -135q49 2 121 2h557l-54 -143h-837z" />
<glyph unicode="[" horiz-adv-x="530" d="M-113 -319l387 1818h338l-26 -123h-191l-334 -1573h191l-27 -122h-338z" />
<glyph unicode="\" horiz-adv-x="757" d="M217 1497l143 29l283 -1573l-143 -33z" />
<glyph unicode="]" horiz-adv-x="530" d="M-35 -319l27 122h190l334 1573h-190l26 123h338l-387 -1818h-338z" />
<glyph unicode="^" horiz-adv-x="1363" d="M182 563l645 887h123l269 -887h-152l-215 715l-518 -715h-152z" />
<glyph unicode="_" horiz-adv-x="1024" d="M-156 -256l21 102h1024l-21 -102h-1024z" />
<glyph unicode="`" horiz-adv-x="692" d="M260 1362l88 158l422 -267l-53 -96z" />
<glyph unicode="a" d="M76 305q0 156 55 309q59 162 158 263q170 172 407 172q168 0 287 -84q-31 -106 -53 -213l-88 -422q-18 -88 -19 -140q0 -74 54 -131l-127 -98q-77 81 -77 196q0 13 1 27q-114 -202 -353 -202h-2q-102 0 -167 77q-76 86 -76 246zM242 303q0 -184 147 -184q80 0 165 68.5 t140 177.5l111 526q-47 29 -123 29q-174 0 -297 -148q-143 -172 -143 -469z" />
<glyph unicode="b" horiz-adv-x="1134" d="M84 100q20 63 39 154l186 879q23 102 23 194q0 72 -15 117l170 65q14 -47 15 -116q0 -104 -29 -238l-29 -137q-8 -43 -49 -189q66 92 169.5 152.5t203.5 60.5h2q274 0 274 -335q0 -178 -64.5 -337t-172.5 -261q-139 -133 -330 -134q-246 0 -393 125zM262 172 q72 -61 215 -61q55 0 120 30.5t101 71.5q78 88 125 233q45 136 45 259q0 192 -164 192h-2q-158 0 -335 -229z" />
<glyph unicode="c" horiz-adv-x="878" d="M84 324q0 170 80 348q76 172 182 258q143 117 305 117q150 0 248 -86l-76 -125q-85 71 -204 71h-3q-131 0 -217 -114q-55 -74 -99 -213.5t-44 -253.5q0 -221 193 -222q127 0 243 111l66 -102q-162 -135 -340 -136q-334 0 -334 347z" />
<glyph unicode="d" horiz-adv-x="1134" d="M84 328q0 334 227 565q145 147 355 147q150 0 225 -39l104 494l156 -27l-244 -1138q-18 -88 -18 -140q0 -68 51 -131l-137 -102q-77 77 -77 192q0 13 1 27q-145 -190 -358 -190q-285 0 -285 342zM254 319q0 -198 148 -198h1q209 0 351 244l104 499q-84 43 -196 43 q-141 0 -246 -112q-68 -74 -115 -216.5t-47 -259.5z" />
<glyph unicode="e" horiz-adv-x="1024" d="M94 346q0 154 58 301q59 158 167 258q156 143 336 144q141 0 217 -71t76 -194q0 -125 -94 -213q-124 -116 -435 -116h-5q-37 0 -127 4q-14 -66 -15 -129q0 -102 62 -164q55 -55 141 -55q168 0 299 116l68 -98q-80 -82 -168 -115q-96 -37 -246 -37q-145 0 -239.5 99.5 t-94.5 269.5zM313 580q29 -2 105 -2q240 0 317 77q51 51 51 125q0 141 -155 142q-100 0 -189.5 -93.5t-128.5 -248.5z" />
<glyph unicode="f" horiz-adv-x="587" d="M-33 -354q92 127 133 340l179 913h-105l23 121h104l27 137q63 326 350 326q125 0 201 -51l-60 -121q-70 47 -151 47q-143 0 -176 -180l-29 -158h282l-71 -121h-234l-184 -928q-53 -264 -158 -397z" />
<glyph unicode="g" horiz-adv-x="1134" d="M-31 -326l60 129q150 -86 313 -86q160 0 238.5 54.5t111.5 199.5l43 187q-135 -176 -358 -176q-129 0 -204 90t-75 254q0 162 70 323q66 156 168 248q170 154 393 154q199 0 340 -90q-31 -86 -59 -220l-97 -460q-23 -115 -57 -287q-55 -223 -178 -317.5t-350 -94.5 q-176 0 -359 92zM270 330q0 -211 166 -211q195 0 340 246l109 514q-61 30 -163 30h-7q-154 0 -264 -104q-72 -68 -126.5 -214.5t-54.5 -260.5z" />
<glyph unicode="h" horiz-adv-x="1103" d="M70 0l239 1126q25 113 25 201q0 68 -15 117l170 65q12 -47 13 -114q0 -111 -33 -271l-23 -106q-16 -78 -51 -191q170 215 404 215q96 0 155.5 -55t59.5 -135q0 -43 -17 -121l-155 -731h-158l145 688q16 78 17 105q0 110 -109 110h-2q-76 0 -177 -64.5t-187 -170.5 l-142 -668h-159z" />
<glyph unicode="i" horiz-adv-x="509" d="M63 0l218 1016l174 26l-222 -1042h-170zM309 1333q0 53 37 90t88 37q53 0 89 -36t36 -89q0 -51 -36 -88t-89 -37q-51 0 -88 36t-37 87z" />
<glyph unicode="j" horiz-adv-x="512" d="M-147 -299q104 45 149 110.5t78 223.5l207 977l170 32l-217 -1017q-41 -188 -115 -283.5t-215 -149.5zM311 1350q0 53 38 91t89 38t88 -37t37 -88q0 -53 -37 -90t-88 -37q-53 0 -90 35.5t-37 87.5z" />
<glyph unicode="k" horiz-adv-x="1024" d="M68 0l241 1135q23 104 23 196q0 72 -15 113l170 65q14 -45 15 -123q0 -104 -25 -217l-250 -1169h-159zM360 590l525 473l112 -92l-454 -396l346 -542l-158 -64z" />
<glyph unicode="l" horiz-adv-x="509" d="M100 100q0 39 11 88l200 949q23 104 23 190q0 68 -15 117l170 65q14 -43 15 -114q0 -119 -31 -258l-194 -912q-10 -47 -11 -73q0 -49 43 -50q29 0 39 4l10 -104q-51 -22 -118 -22h-6q-135 0 -136 120z" />
<glyph unicode="m" horiz-adv-x="1613" d="M70 0l155 731q23 109 23 156q0 41 -15 94l150 70q25 -53 25 -119q0 -53 -15 -107q186 217 377 217q174 0 174 -215q190 219 383 220q88 0 141 -62q48 -57 48 -137q0 -43 -17 -119l-156 -729h-163l151 713q12 57 12 98q0 90 -100 90q-59 0 -149 -65.5t-172 -165.5 l-144 -670h-162l148 696q20 96 20 119q0 86 -82 86q-61 0 -153 -61q-98 -66 -184 -174l-142 -666h-153z" />
<glyph unicode="n" horiz-adv-x="1105" d="M70 0l155 729q23 104 23 156q0 43 -15 96l150 70q25 -72 25 -123q0 -45 -15 -103q164 217 395 217q94 0 148.5 -54t54.5 -148q0 -37 -6 -66l-166 -774h-162l148 690q16 76 16 111q0 102 -98 102q-166 0 -356 -237l-142 -666h-155z" />
<glyph unicode="o" horiz-adv-x="1124" d="M90 342q0 303 162 506t405 203q172 0 263 -103q84 -96 84 -268q0 -301 -160 -504t-408 -203q-166 0 -256 97.5t-90 271.5zM266 332q0 -225 201 -226q170 0 268 179q92 165 92 413q0 221 -198 222q-168 0 -267 -170q-96 -162 -96 -418z" />
<glyph unicode="p" horiz-adv-x="1128" d="M-23 -426l248 1157q23 102 23 154q0 43 -17 96l150 70q27 -59 27 -123q0 -41 -11 -94q78 102 185 157q94 49 186 49q129 0 195.5 -86.5t66.5 -240.5q0 -139 -49 -295q-49 -162 -129 -258q-154 -184 -377 -185q-145 0 -242 52l-90 -422zM262 170q74 -61 211 -61 q70 0 141.5 38.5t110.5 96.5q55 84 93 215.5t38 242.5q0 195 -149 195q-170 0 -338 -225z" />
<glyph unicode="q" horiz-adv-x="1099" d="M94 326q0 164 64.5 321.5t165.5 249.5q170 154 393 154q199 0 340 -90q-31 -82 -60 -220l-239 -1124l-160 -33l125 574q-135 -176 -358 -176q-129 0 -200 90t-71 254zM266 330q0 -211 158 -211q195 0 340 246l108 520q-61 30 -163 30h-7q-147 0 -264 -110 q-70 -66 -121 -212.5t-51 -262.5z" />
<glyph unicode="r" horiz-adv-x="669" d="M72 0l147 692q27 127 27 191q0 49 -15 98l150 70q25 -61 25 -115q0 -47 -17 -129q72 109 164 174.5t166 65.5q41 -1 76 -11l-70 -174q-25 8 -63 8q-145 0 -300 -231l-135 -639h-155z" />
<glyph unicode="s" horiz-adv-x="913" d="M-2 70l65 123q139 -96 304 -97q109 0 178 47t69 125q0 63 -27.5 101.5t-101.5 70.5l-120 54q-106 47 -152.5 104t-46.5 145q0 139 115.5 228.5t300.5 89.5q174 0 295 -78l-66 -123q-137 74 -240 74q-102 0 -166.5 -41t-64.5 -111q0 -96 111 -143l129 -55 q215 -92 215 -258q0 -164 -124 -259.5t-321 -95.5q-213 0 -352 99z" />
<glyph unicode="t" horiz-adv-x="659" d="M131 133q0 72 16 150l129 616h-133l23 121h135q37 150 72 258l174 37q-55 -156 -84 -295h254l-64 -121h-221l-127 -598q-14 -68 -14 -111q0 -100 102 -100q59 0 107 21v-103q-88 -41 -189 -41q-180 0 -180 166z" />
<glyph unicode="u" horiz-adv-x="1097" d="M115 170q0 72 16 149l148 693l163 30l-143 -686q-18 -88 -18 -133q0 -68 22.5 -94.5t77.5 -26.5q82 0 178 64q109 72 186 196l138 648l164 26l-154 -723q-20 -92 -21 -135q0 -57 48 -119l-125 -102q-77 76 -77 192q0 16 1 33q-182 -217 -389 -217q-215 0 -215 205z" />
<glyph unicode="v" horiz-adv-x="987" d="M123 1012l162 35l88 -703q12 -98 12 -174h4q29 68 86 172l377 678l178 -2l-600 -1028h-158z" />
<glyph unicode="w" horiz-adv-x="1427" d="M158 1012l161 35l21 -674q1 -44 1 -86.5t-1 -83.5h6q16 37 68 147l325 670h172l43 -827h4q23 53 62 141l307 686h174l-508 -1028h-151l-62 829h-4q-14 -35 -43 -104l-360 -725h-150z" />
<glyph unicode="x" horiz-adv-x="915" d="M-109 0l502 565l-219 455h193l131 -340l268 340h190l-401 -457l270 -563h-188l-184 440l-367 -440h-195z" />
<glyph unicode="y" horiz-adv-x="948" d="M18 -311q86 8 181 94q70 63 131 217l-66 -8v37q0 132 -24 329l-84 650l168 34l69 -653q7 -64 7 -166q0 -41 -1 -88h4l453 885h184l-471 -864q-154 -281 -161 -295q-80 -135 -154 -193q-84 -66 -199 -88z" />
<glyph unicode="z" horiz-adv-x="878" d="M-23 0v123l713 770h-479v127h678v-127l-713 -770h565l-73 -123h-691z" />
<glyph unicode="{" horiz-adv-x="681" d="M78 528l26 123q68 0 136.5 64.5t89.5 167.5l76 360q25 117 112 191q78 66 158 65h143l-26 -123h-111q-100 0 -135 -162l-76 -360q-25 -121 -113 -197q-57 -51 -118 -65l-2 -4q45 -6 79 -41q51 -51 52 -141q0 -39 -11 -82l-75 -359q-10 -45 -11 -76q0 -86 76 -86h111 l-27 -122h-143q-70 0 -119 50t-49 136q0 33 8 70l76 358q8 35 8 67q0 76 -39 121t-96 45z" />
<glyph unicode="|" horiz-adv-x="454" d="M49 -37l338 1585h135l-338 -1585h-135z" />
<glyph unicode="}" horiz-adv-x="681" d="M-90 -319l27 122h110q100 0 135 162l76 359q29 131 115 206q59 49 116 58l3 4q-43 12 -80 51q-49 53 -50 139q0 35 9 72l75 360q10 47 11 78q0 84 -76 84h-111l27 123h143q68 0 118 -51t50 -139q0 -31 -8 -66l-76 -360q-6 -33 -6 -64q0 -76 39 -122t94 -46l-26 -123 q-70 0 -133 -61q-70 -68 -93 -172l-75 -358q-25 -117 -111 -191q-76 -66 -160 -65h-143z" />
<glyph unicode="~" horiz-adv-x="1363" d="M231 578q82 88 129 122q82 57 166 58q72 0 195 -62q51 -27 102 -53q59 -25 117 -25q106 0 205 144l47 -98q-84 -88 -131 -123q-82 -57 -166 -58q-70 0 -195 62q-51 27 -102 51q-61 27 -117 27q-109 0 -202 -144z" />
<glyph unicode="&#xa1;" horiz-adv-x="544" d="M76 -18l258 1026h123l-174 -1000zM330 1298q0 53 36.5 91t88.5 38q51 0 88 -36.5t37 -90.5q0 -51 -36 -87.5t-89 -36.5q-51 0 -88 35.5t-37 86.5z" />
<glyph unicode="&#xa2;" horiz-adv-x="878" d="M86 328q0 74 20 166q61 287 248 440q113 94 242 108l35 158h112l-34 -158q108 -14 200 -106l-110 -111q-66 66 -119 76l-168 -790q98 23 184 104l66 -102q-137 -117 -279 -131l-32 -156h-113l33 154q-139 12 -215 110q-70 90 -70 238zM260 319q0 -180 137 -210l170 792 q-102 -27 -164 -108q-80 -104 -127 -334q-16 -78 -16 -140z" />
<glyph unicode="&#xa3;" horiz-adv-x="1138" d="M14 0l35 160h221l109 516h-197l29 135h197l34 164q53 254 207 383q139 117 338 117q203 0 303 -127l-125 -117q-80 96 -213 96q-260 0 -338 -356l-34 -160h331l-28 -135h-332l-109 -516h504l-35 -160h-897z" />
<glyph unicode="&#xa4;" horiz-adv-x="915" d="M37 184l121 131q-33 45 -33 134q0 100 41.5 204.5t109.5 159.5l-63 125l145 78l52 -129q137 37 243 -2l103 133l123 -86l-113 -129q41 -37 41 -146q0 -96 -33 -188q-39 -111 -106 -164l63 -131l-137 -78l-57 129q-57 -23 -136 -22q-78 0 -135 22l-108 -135zM266 467 q0 -152 156 -152q186 0 231 220q12 63 13 108q0 148 -154 148q-186 0 -233 -220q-12 -59 -13 -104z" />
<glyph unicode="&#xa5;" horiz-adv-x="1099" d="M35 328l26 121h398l22 108l-28 88h-351l27 121h285l-205 639h190l152 -537q31 -106 39 -157q45 70 108 157l385 537h209l-475 -639h305l-26 -121h-369l-74 -98l-20 -98h422l-27 -121h-422l-69 -328h-175l70 328h-397z" />
<glyph unicode="&#xa7;" horiz-adv-x="1138" d="M4 -43l154 68q20 -172 239 -172q129 0 199 61t70 158q0 59 -58 108q-20 16 -106 68l-215 127q-111 66 -111 200q0 219 275 343q-117 76 -117 188q0 166 139 276q131 106 311 107q125 0 213 -45q100 -54 125 -150l-157 -77q-33 125 -207 124q-104 0 -179 -58t-75 -144 t86 -135l162 -93q117 -68 168 -118q70 -74 69 -168q0 -205 -235 -324q98 -74 98 -190q0 -164 -123 -279q-137 -127 -375 -127q-139 0 -229 62q-98 66 -121 190zM340 618q0 -53 41 -94q27 -23 94 -61l164 -92q74 29 127 82q61 63 61 131q0 100 -161 190l-107 60 q-219 -70 -219 -216z" />
<glyph unicode="&#xa8;" horiz-adv-x="1024" d="M354 1272q0 43 31 73.5t74 30.5q45 0 75.5 -30.5t30.5 -73.5q0 -45 -29.5 -77t-74.5 -32t-76 32t-31 77zM776 1272q0 43 31 73.5t76 30.5q43 0 74.5 -30.5t31.5 -73.5q0 -45 -30.5 -77t-73.5 -32q-45 0 -77 32t-32 77z" />
<glyph unicode="&#xa9;" horiz-adv-x="1638" d="M90 557q1 82 19 168q72 334 315 543q254 219 608 219q270 0 444.5 -168t174.5 -430q0 -80 -19 -164q-72 -340 -305 -543q-248 -219 -618 -219q-272 0 -445.5 166t-173.5 428zM227 569q0 -223 140.5 -359t365.5 -136q291 0 502 188q201 180 262 463q16 80 16 154 q0 223 -139 360t-364 137q-281 0 -493 -185t-273 -466q-16 -80 -17 -156zM487 608q0 242 141.5 411t332.5 169q123 0 219 -84l-80 -86q-72 57 -152 57q-143 0 -237 -151q-86 -141 -86 -320q0 -199 182 -198q82 0 182 61l55 -98q-133 -80 -270 -80q-135 0 -211 86t-76 233z " />
<glyph unicode="&#xaa;" horiz-adv-x="802" d="M80 492l24 110h641l-24 -110h-641zM174 999q0 119 43 239t119 196q129 131 313 131q133 0 223 -66q-25 -84 -41 -166l-65 -317q-12 -63 -12 -98q0 -55 43 -103l-107 -82q-68 68 -65 152q-92 -135 -258 -135q-78 0 -131 59q-61 68 -62 190zM313 999q0 -131 107 -131 q59 0 120.5 51.5t102.5 131.5l80 385q-27 16 -84 16q-133 0 -221 -106q-104 -127 -105 -347z" />
<glyph unicode="&#xab;" horiz-adv-x="1024" d="M119 500l407 430l111 -82l-354 -371l180 -356l-123 -68zM500 500l407 430l111 -82l-354 -371l180 -356l-123 -68z" />
<glyph unicode="&#xac;" horiz-adv-x="1196" d="M160 444l30 146h797l-92 -432h-145l61 286h-651z" />
<glyph unicode="&#xad;" horiz-adv-x="618" d="M115 469l32 156h392l-33 -156h-391z" />
<glyph unicode="&#xae;" horiz-adv-x="1638" d="M74 557q0 82 18 168q72 334 316 543q254 219 608 219q270 0 444 -168t174 -430q0 -80 -18 -164q-72 -340 -305 -543q-248 -219 -619 -219q-272 0 -445 166t-173 428zM211 569q0 -223 140.5 -359t365.5 -136q291 0 502 188q201 180 262 463q16 80 16 154q0 223 -139 360 t-365 137q-281 0 -493 -185t-273 -466q-16 -80 -16 -156zM526 297l187 874h198q281 0 281 -213q0 -115 -78.5 -192.5t-191.5 -85.5q47 -47 108 -174q47 -98 78 -189l-121 -36q-117 264 -180 352q-29 41 -64 43l-81 -379h-136zM764 772h70q102 0 159.5 48t57.5 120 q0 115 -144 115h-84z" />
<glyph unicode="&#xb0;" horiz-adv-x="798" d="M233 1085q0 123 90.5 213.5t213.5 90.5t211 -89.5t88 -214.5t-88.5 -214t-212.5 -89q-123 0 -212.5 89.5t-89.5 213.5zM354 1085q0 -72 55.5 -126t125.5 -54q72 0 125 54t53 126t-51.5 126.5t-120.5 54.5q-76 0 -131.5 -54.5t-55.5 -126.5z" />
<glyph unicode="&#xb1;" horiz-adv-x="931" d="M0 74l31 145h751l-30 -145h-752zM106 602l33 146h307l58 272h145l-57 -272h307l-33 -146h-307l-59 -287h-146l60 287h-308z" />
<glyph unicode="&#xb4;" horiz-adv-x="692" d="M279 1253l426 267l88 -158l-461 -205z" />
<glyph unicode="&#xb5;" horiz-adv-x="1097" d="M-23 -426l304 1438l170 32l-158 -735q-12 -57 -12 -90q0 -53 36 -82q45 -35 119 -35q76 0 159 51.5t140 133.5l154 723l164 26l-154 -723q-23 -102 -22 -149q0 -53 38 -98l-124 -109q-76 74 -76 164q-150 -156 -357 -156q-92 0 -129 39q-43 -201 -86 -399z" />
<glyph unicode="&#xb6;" horiz-adv-x="1228" d="M281 952q0 221 161.5 359.5t403.5 138.5h497l-364 -1708h-148l336 1573h-241l-336 -1573h-148l193 905q-162 0 -258 85t-96 220z" />
<glyph unicode="&#xb8;" horiz-adv-x="878" d="M109 -354l63 96q66 -33 119 -33q72 0 86 62q14 59 -64 59q-35 0 -80 -4l97 199l116 -15l-45 -96q109 -14 109 -102q0 -74 -64 -140q-71 -75 -180 -75q-78 0 -157 49z" />
<glyph unicode="&#xba;" horiz-adv-x="802" d="M123 492l24 110h641l-24 -110h-641zM233 1028q0 231 123 384t310 153q266 0 266 -285q0 -227 -122 -382t-310 -155q-127 0 -197 76t-70 209zM379 1022q0 -166 143 -166q123 0 197 133q67 121 67 305q0 158 -143 158q-123 0 -193.5 -122t-70.5 -308z" />
<glyph unicode="&#xbb;" horiz-adv-x="1024" d="M14 135l355 371l-181 356l123 68l221 -447l-407 -430zM395 135l355 371l-181 356l123 68l221 -447l-407 -430z" />
<glyph unicode="&#xbf;" horiz-adv-x="731" d="M29 229q0 184 256 355q113 74 157 159q43 80 43 201h138q6 -299 -236 -448q-190 -117 -190 -228q0 -154 165 -153q131 0 285 94l53 -109q-186 -125 -370 -125q-301 0 -301 254zM487 1288q0 53 37 91t88 38t88 -37t37 -90q0 -51 -35.5 -88t-89.5 -37q-51 0 -88 36t-37 87z " />
<glyph unicode="&#xc0;" horiz-adv-x="1169" d="M-94 0l768 1405h219l166 -1405h-182l-41 432h-525l-227 -432h-178zM385 569h436l-71 693q-25 -53 -88 -175zM432 1690l88 158l422 -267l-53 -96z" />
<glyph unicode="&#xc1;" horiz-adv-x="1169" d="M-94 0l768 1405h219l166 -1405h-182l-41 432h-525l-227 -432h-178zM385 569h436l-71 693q-25 -53 -88 -175zM617 1581l426 267l88 -158l-461 -205z" />
<glyph unicode="&#xc2;" horiz-adv-x="1169" d="M-94 0l768 1405h219l166 -1405h-182l-41 432h-525l-227 -432h-178zM385 569h436l-71 693q-25 -53 -88 -175zM440 1567l404 277l295 -277l-74 -90l-246 174l-315 -174z" />
<glyph unicode="&#xc3;" horiz-adv-x="1169" d="M-94 0l768 1405h219l166 -1405h-182l-41 432h-525l-227 -432h-178zM385 569h436l-71 693q-25 -53 -88 -175zM422 1631q133 129 274 129q63 0 124 -38t120 -38q70 0 160 80l39 -93q-133 -129 -277 -129q-63 0 -123.5 38t-120.5 38q-63 0 -157 -80z" />
<glyph unicode="&#xc4;" horiz-adv-x="1169" d="M-94 0l768 1405h219l166 -1405h-182l-41 432h-525l-227 -432h-178zM385 569h436l-71 693q-25 -53 -88 -175zM473 1600q0 43 31 73.5t74 30.5q45 0 75.5 -30.5t30.5 -73.5q0 -45 -29.5 -77t-74.5 -32t-76 32t-31 77zM895 1600q0 43 31 73.5t76 30.5q43 0 74.5 -30.5 t31.5 -73.5q0 -45 -30.5 -77t-73.5 -32q-45 0 -77 32t-32 77z" />
<glyph unicode="&#xc5;" horiz-adv-x="1169" d="M-94 0l768 1405h219l166 -1405h-182l-41 432h-525l-227 -432h-178zM385 569h436l-71 693q-25 -53 -88 -175zM594 1678q0 88 64.5 152.5t152.5 64.5t150.5 -64.5t62.5 -152.5q0 -90 -63.5 -153.5t-151.5 -63.5t-151.5 64.5t-63.5 152.5zM686 1678q0 -49 38 -86t85 -37 q49 0 85 37t36 86t-35 86t-82 37q-51 0 -89 -37t-38 -86z" />
<glyph unicode="&#xc6;" horiz-adv-x="1884" d="M-63 0l1165 1405h821l-51 -139h-565l-97 -461h482l-31 -146h-481l-111 -514h619l-31 -145h-789l93 432h-463l-359 -432h-202zM610 569h379l137 656z" />
<glyph unicode="&#xc7;" horiz-adv-x="1126" d="M125 485q0 184 63 367q70 197 191 332q215 240 506 239q196 1 323 -116l-94 -105q-100 86 -248 86q-246 0 -401 -241q-76 -119 -121 -276t-45 -294q0 -170 85 -264t247 -94q145 0 293 90l65 -117q-201 -115 -416 -115q-209 0 -328.5 138.5t-119.5 369.5zM256 -354l63 96 q66 -33 119 -33q72 0 86 62q14 59 -64 59q-35 0 -80 -4l97 199l116 -15l-45 -96q109 -14 109 -102q0 -74 -64 -140q-71 -75 -180 -75q-78 0 -157 49z" />
<glyph unicode="&#xc8;" horiz-adv-x="1050" d="M86 0l299 1405h768l-53 -139h-576l-96 -461h481l-32 -146h-482l-108 -514h618l-31 -145h-788zM498 1690l88 158l422 -267l-53 -96z" />
<glyph unicode="&#xc9;" horiz-adv-x="1050" d="M86 0l299 1405h768l-53 -139h-576l-96 -461h481l-32 -146h-482l-108 -514h618l-31 -145h-788zM596 1581l426 267l88 -158l-461 -205z" />
<glyph unicode="&#xca;" horiz-adv-x="1050" d="M86 0l299 1405h768l-53 -139h-576l-96 -461h481l-32 -146h-482l-108 -514h618l-31 -145h-788zM428 1567l404 277l295 -277l-74 -90l-246 174l-315 -174z" />
<glyph unicode="&#xcb;" horiz-adv-x="1050" d="M86 0l299 1405h768l-53 -139h-576l-96 -461h481l-32 -146h-482l-108 -514h618l-31 -145h-788zM473 1600q0 43 31 73.5t74 30.5q45 0 75.5 -30.5t30.5 -73.5q0 -45 -29.5 -77t-74.5 -32t-76 32t-31 77zM895 1600q0 43 31 73.5t76 30.5q43 0 74.5 -30.5t31.5 -73.5 q0 -45 -30.5 -77t-73.5 -32q-45 0 -77 32t-32 77z" />
<glyph unicode="&#xcc;" horiz-adv-x="540" d="M86 0l299 1405h164l-299 -1405h-164zM98 1690l88 158l422 -267l-53 -96z" />
<glyph unicode="&#xcd;" horiz-adv-x="540" d="M86 0l299 1405h164l-299 -1405h-164zM326 1581l426 267l88 -158l-461 -205z" />
<glyph unicode="&#xce;" horiz-adv-x="540" d="M86 0l299 1405h164l-299 -1405h-164zM147 1567l404 277l295 -277l-74 -90l-246 174l-315 -174z" />
<glyph unicode="&#xcf;" horiz-adv-x="540" d="M86 0l299 1405h164l-299 -1405h-164zM176 1600q0 43 31 73.5t74 30.5q45 0 75.5 -30.5t30.5 -73.5q0 -45 -29.5 -77t-74.5 -32t-76 32t-31 77zM598 1600q0 43 31 73.5t76 30.5q43 0 74.5 -30.5t31.5 -73.5q0 -45 -30.5 -77t-73.5 -32q-45 0 -77 32t-32 77z" />
<glyph unicode="&#xd1;" horiz-adv-x="1310" d="M86 0l299 1405h195l276 -897q39 -129 68 -295q16 113 73 428l156 764h166l-299 -1405h-176l-269 860q-49 158 -88 338q-12 -100 -61 -383l-166 -815h-174zM516 1637q133 129 274 129q63 0 124 -38t120 -38q70 0 160 80l39 -93q-133 -129 -277 -129q-63 0 -123.5 38 t-120.5 38q-63 0 -157 -80z" />
<glyph unicode="&#xd2;" horiz-adv-x="1368" d="M137 471q0 223 78 440q78 211 199 334q182 184 465 185q209 0 324.5 -124.5t115.5 -351.5q0 -260 -84 -487q-92 -242 -256 -368t-404 -126q-215 0 -327 136q-111 129 -111 362zM322 432q0 -330 290 -330q164 0 287 121q100 100 172 332q66 219 66 416q0 324 -287 323 q-215 0 -336 -164q-193 -260 -192 -698zM549 1690l88 158l422 -267l-53 -96z" />
<glyph unicode="&#xd3;" horiz-adv-x="1368" d="M137 471q0 223 78 440q78 211 199 334q182 184 465 185q209 0 324.5 -124.5t115.5 -351.5q0 -260 -84 -487q-92 -242 -256 -368t-404 -126q-215 0 -327 136q-111 129 -111 362zM322 432q0 -330 290 -330q164 0 287 121q100 100 172 332q66 219 66 416q0 324 -287 323 q-215 0 -336 -164q-193 -260 -192 -698zM713 1581l426 267l88 -158l-461 -205z" />
<glyph unicode="&#xd4;" horiz-adv-x="1368" d="M137 471q0 223 78 440q78 211 199 334q182 184 465 185q209 0 324.5 -124.5t115.5 -351.5q0 -260 -84 -487q-92 -242 -256 -368t-404 -126q-215 0 -327 136q-111 129 -111 362zM322 432q0 -330 290 -330q164 0 287 121q100 100 172 332q66 219 66 416q0 324 -287 323 q-215 0 -336 -164q-193 -260 -192 -698zM538 1567l404 277l295 -277l-74 -90l-246 174l-315 -174z" />
<glyph unicode="&#xd5;" horiz-adv-x="1368" d="M137 471q0 223 78 440q78 211 199 334q182 184 465 185q209 0 324.5 -124.5t115.5 -351.5q0 -260 -84 -487q-92 -242 -256 -368t-404 -126q-215 0 -327 136q-111 129 -111 362zM322 432q0 -330 290 -330q164 0 287 121q100 100 172 332q66 219 66 416q0 324 -287 323 q-215 0 -336 -164q-193 -260 -192 -698zM553 1631q133 129 274 129q63 0 124 -38t120 -38q70 0 160 80l39 -93q-133 -129 -277 -129q-63 0 -123.5 38t-120.5 38q-63 0 -157 -80z" />
<glyph unicode="&#xd6;" horiz-adv-x="1368" d="M137 471q0 223 78 440q78 211 199 334q182 184 465 185q209 0 324.5 -124.5t115.5 -351.5q0 -260 -84 -487q-92 -242 -256 -368t-404 -126q-215 0 -327 136q-111 129 -111 362zM322 432q0 -330 290 -330q164 0 287 121q100 100 172 332q66 219 66 416q0 324 -287 323 q-215 0 -336 -164q-193 -260 -192 -698zM590 1606q0 43 31 73.5t74 30.5q45 0 75.5 -30.5t30.5 -73.5q0 -45 -29.5 -77t-74.5 -32t-76 32t-31 77zM1012 1606q0 43 31 73.5t76 30.5q43 0 74.5 -30.5t31.5 -73.5q0 -45 -30.5 -77t-73.5 -32q-45 0 -77 32t-32 77z" />
<glyph unicode="&#xd8;" horiz-adv-x="1353" d="M10 -100l205 252q-78 125 -78 319q0 223 78 440q78 211 199 334q182 184 465 185q182 0 295 -97l178 219l96 -65l-199 -244q70 -117 70 -289q0 -260 -84 -487q-92 -242 -256 -368t-404 -126q-174 0 -284 93l-189 -232zM319 432q0 -66 15 -133l737 907q-74 90 -221 90 q-213 0 -336 -166q-195 -262 -195 -698zM389 188q76 -88 223 -88q162 0 287 123q100 100 172 332q68 219 68 416q0 68 -13 119q-367 -451 -737 -902z" />
<glyph unicode="&#xd9;" horiz-adv-x="1292" d="M158 276q0 100 18 187l201 942h166l-191 -899q-31 -145 -30 -215q0 -172 247 -172q182 0 267 88q70 72 104 239l203 959h166l-207 -977q-33 -156 -67 -225.5t-109 -124.5q-139 -102 -375 -103q-180 0 -283 72q-111 78 -110 229zM524 1690l88 158l422 -267l-53 -96z" />
<glyph unicode="&#xda;" horiz-adv-x="1292" d="M158 276q0 100 18 187l201 942h166l-191 -899q-31 -145 -30 -215q0 -172 247 -172q182 0 267 88q70 72 104 239l203 959h166l-207 -977q-33 -156 -67 -225.5t-109 -124.5q-139 -102 -375 -103q-180 0 -283 72q-111 78 -110 229zM676 1581l426 267l88 -158l-461 -205z" />
<glyph unicode="&#xdb;" horiz-adv-x="1292" d="M158 276q0 100 18 187l201 942h166l-191 -899q-31 -145 -30 -215q0 -172 247 -172q182 0 267 88q70 72 104 239l203 959h166l-207 -977q-33 -156 -67 -225.5t-109 -124.5q-139 -102 -375 -103q-180 0 -283 72q-111 78 -110 229zM524 1567l404 277l295 -277l-74 -90 l-246 174l-315 -174z" />
<glyph unicode="&#xdc;" horiz-adv-x="1292" d="M158 276q0 100 18 187l201 942h166l-191 -899q-31 -145 -30 -215q0 -172 247 -172q182 0 267 88q70 72 104 239l203 959h166l-207 -977q-33 -156 -67 -225.5t-109 -124.5q-139 -102 -375 -103q-180 0 -283 72q-111 78 -110 229zM538 1600q0 43 31 73.5t74 30.5 q45 0 75.5 -30.5t30.5 -73.5q0 -45 -29.5 -77t-74.5 -32t-76 32t-31 77zM960 1600q0 43 31 73.5t76 30.5q43 0 74.5 -30.5t31.5 -73.5q0 -45 -30.5 -77t-73.5 -32q-45 0 -77 32t-32 77z" />
<glyph unicode="&#xdf;" horiz-adv-x="1171" d="M-47 -354q86 119 131 340l186 913h-151l26 121h148l8 35q92 395 467 395q139 0 223 -73.5t84 -188.5q0 -133 -100 -219q-61 -49 -189 -97q-100 -39 -100 -59q0 -27 90 -72q119 -55 170 -106q90 -90 90 -225q0 -174 -127 -299q-137 -135 -354 -136q-104 0 -180 35l49 113 q68 -31 133 -31q133 0 224 75t91 202q0 119 -86 188q-80 49 -161 96q-86 55 -86 135q0 76 94 130q88 45 178 90q94 68 94 176q0 66 -47 105.5t-127 39.5q-219 0 -280 -311l-209 -1047q-53 -268 -156 -397z" />
<glyph unicode="&#xe0;" d="M76 305q0 156 55 309q59 162 158 263q170 172 407 172q168 0 287 -84q-31 -106 -53 -213l-88 -422q-18 -88 -19 -140q0 -74 54 -131l-127 -98q-86 90 -76 223q-115 -203 -355 -202q-102 0 -167 77q-76 86 -76 246zM242 303q0 -184 147 -184q80 0 165 68.5t140 177.5 l111 526q-47 29 -123 29q-174 0 -297 -148q-143 -172 -143 -469zM407 1362l88 158l422 -267l-53 -96z" />
<glyph unicode="&#xe1;" d="M76 305q0 156 55 309q59 162 158 263q170 172 407 172q168 0 287 -84q-31 -106 -53 -213l-88 -422q-18 -88 -19 -140q0 -74 54 -131l-127 -98q-86 90 -76 223q-115 -203 -355 -202q-102 0 -167 77q-76 86 -76 246zM242 303q0 -184 147 -184q80 0 165 68.5t140 177.5 l111 526q-47 29 -123 29q-174 0 -297 -148q-143 -172 -143 -469zM549 1253l426 267l88 -158l-461 -205z" />
<glyph unicode="&#xe2;" d="M76 305q0 156 55 309q59 162 158 263q170 172 407 172q168 0 287 -84q-31 -106 -53 -213l-88 -422q-18 -88 -19 -140q0 -74 54 -131l-127 -98q-86 90 -76 223q-115 -203 -355 -202q-102 0 -167 77q-76 86 -76 246zM242 303q0 -184 147 -184q80 0 165 68.5t140 177.5 l111 526q-47 29 -123 29q-174 0 -297 -148q-143 -172 -143 -469zM373 1239l404 277l295 -277l-74 -90l-246 174l-315 -174z" />
<glyph unicode="&#xe3;" d="M76 305q0 156 55 309q59 162 158 263q170 172 407 172q168 0 287 -84q-31 -106 -53 -213l-88 -422q-18 -88 -19 -140q0 -74 54 -131l-127 -98q-86 90 -76 223q-115 -203 -355 -202q-102 0 -167 77q-76 86 -76 246zM242 303q0 -184 147 -184q80 0 165 68.5t140 177.5 l111 526q-47 29 -123 29q-174 0 -297 -148q-143 -172 -143 -469zM344 1303q133 129 274 129q63 0 124 -38t120 -38q70 0 160 80l39 -93q-133 -129 -277 -129q-63 0 -123.5 38t-120.5 38q-63 0 -157 -80z" />
<glyph unicode="&#xe4;" d="M76 305q0 156 55 309q59 162 158 263q170 172 407 172q168 0 287 -84q-31 -106 -53 -213l-88 -422q-18 -88 -19 -140q0 -74 54 -131l-127 -98q-86 90 -76 223q-115 -203 -355 -202q-102 0 -167 77q-76 86 -76 246zM242 303q0 -184 147 -184q80 0 165 68.5t140 177.5 l111 526q-47 29 -123 29q-174 0 -297 -148q-143 -172 -143 -469zM374 1272q0 43 31 73.5t74 30.5q45 0 75.5 -30.5t30.5 -73.5q0 -45 -29.5 -77t-74.5 -32t-76 32t-31 77zM796 1272q0 43 31 73.5t76 30.5q43 0 74.5 -30.5t31.5 -73.5q0 -45 -30.5 -77t-73.5 -32 q-45 0 -77 32t-32 77z" />
<glyph unicode="&#xe5;" d="M76 305q0 156 55 309q59 162 158 263q170 172 407 172q168 0 287 -84q-31 -106 -53 -213l-88 -422q-18 -88 -19 -140q0 -74 54 -131l-127 -98q-86 90 -76 223q-115 -203 -355 -202q-102 0 -167 77q-76 86 -76 246zM242 303q0 -184 147 -184q80 0 165 68.5t140 177.5 l111 526q-47 29 -123 29q-174 0 -297 -148q-143 -172 -143 -469zM479 1350q0 88 64.5 152.5t152.5 64.5t150.5 -64.5t62.5 -152.5q0 -90 -63.5 -153.5t-151.5 -63.5t-151.5 64.5t-63.5 152.5zM571 1350q0 -49 38 -86t85 -37q49 0 85 37t36 86t-35 86t-82 37q-51 0 -89 -37 t-38 -86z" />
<glyph unicode="&#xe6;" horiz-adv-x="1581" d="M53 231q0 178 174 287q127 78 375 78q70 0 113 -4l26 108q14 59 15 109q0 106 -142 106q-172 0 -348 -120l-55 114q233 137 455 138q178 0 223 -146q141 147 328 148q135 0 206.5 -68.5t71.5 -189.5q0 -125 -96 -216q-131 -121 -441 -120q-37 0 -127 4q-14 -66 -14 -129 q0 -102 62 -164q55 -55 141 -55q176 0 303 112l63 -96q-143 -150 -413 -150q-178 0 -281 166q-141 -170 -350 -170q-143 0 -221 76q-68 70 -68 182zM219 260q0 -78 43 -123t113 -45q123 0 213 107q53 63 102 280q-266 0 -147 4q-133 -4 -195 -39q-129 -72 -129 -184z M858 580q29 -2 105 -2q240 0 317 77q51 51 51 125q0 141 -155 142q-100 0 -189.5 -93.5t-128.5 -248.5z" />
<glyph unicode="&#xe7;" horiz-adv-x="901" d="M84 324q0 170 80 348q76 172 182 258q143 117 305 117q150 0 248 -86l-76 -125q-86 72 -207 71q-131 0 -217 -114q-55 -74 -99 -213.5t-44 -253.5q0 -221 193 -222q127 0 243 111l66 -102q-162 -135 -340 -136q-334 0 -334 347zM109 -354l63 96q66 -33 119 -33 q72 0 86 62q14 59 -64 59q-35 0 -80 -4l97 199l116 -15l-45 -96q109 -14 109 -102q0 -74 -64 -140q-71 -75 -180 -75q-78 0 -157 49z" />
<glyph unicode="&#xe8;" d="M94 346q0 154 58 301q59 158 167 258q156 143 336 144q141 0 217 -71t76 -194q0 -125 -94 -213q-125 -117 -440 -116q-37 0 -127 4q-14 -66 -15 -129q0 -102 62 -164q55 -55 141 -55q168 0 299 116l68 -98q-80 -82 -168 -115q-96 -37 -246 -37q-145 0 -239.5 99.5 t-94.5 269.5zM313 580q29 -2 105 -2q240 0 317 77q51 51 51 125q0 141 -155 142q-100 0 -189.5 -93.5t-128.5 -248.5zM358 1362l88 158l422 -267l-53 -96z" />
<glyph unicode="&#xe9;" d="M94 346q0 154 58 301q59 158 167 258q156 143 336 144q141 0 217 -71t76 -194q0 -125 -94 -213q-125 -117 -440 -116q-37 0 -127 4q-14 -66 -15 -129q0 -102 62 -164q55 -55 141 -55q168 0 299 116l68 -98q-80 -82 -168 -115q-96 -37 -246 -37q-145 0 -239.5 99.5 t-94.5 269.5zM313 580q29 -2 105 -2q240 0 317 77q51 51 51 125q0 141 -155 142q-100 0 -189.5 -93.5t-128.5 -248.5zM553 1253l426 267l88 -158l-461 -205z" />
<glyph unicode="&#xea;" d="M94 346q0 154 58 301q59 158 167 258q156 143 336 144q141 0 217 -71t76 -194q0 -125 -94 -213q-125 -117 -440 -116q-37 0 -127 4q-14 -66 -15 -129q0 -102 62 -164q55 -55 141 -55q168 0 299 116l68 -98q-80 -82 -168 -115q-96 -37 -246 -37q-145 0 -239.5 99.5 t-94.5 269.5zM313 580q29 -2 105 -2q240 0 317 77q51 51 51 125q0 141 -155 142q-100 0 -189.5 -93.5t-128.5 -248.5zM319 1239l404 277l295 -277l-74 -90l-246 174l-315 -174z" />
<glyph unicode="&#xeb;" d="M94 346q0 154 58 301q59 158 167 258q156 143 336 144q141 0 217 -71t76 -194q0 -125 -94 -213q-125 -117 -440 -116q-37 0 -127 4q-14 -66 -15 -129q0 -102 62 -164q55 -55 141 -55q168 0 299 116l68 -98q-80 -82 -168 -115q-96 -37 -246 -37q-145 0 -239.5 99.5 t-94.5 269.5zM313 580q29 -2 105 -2q240 0 317 77q51 51 51 125q0 141 -155 142q-100 0 -189.5 -93.5t-128.5 -248.5zM372 1272q0 43 31 73.5t74 30.5q45 0 75.5 -30.5t30.5 -73.5q0 -45 -29.5 -77t-74.5 -32t-76 32t-31 77zM794 1272q0 43 31 73.5t76 30.5q43 0 74.5 -30.5 t31.5 -73.5q0 -45 -30.5 -77t-73.5 -32q-45 0 -77 32t-32 77z" />
<glyph unicode="&#xec;" horiz-adv-x="509" d="M63 0l218 1016l176 26l-221 -1042h-173zM63 1362l88 158l422 -267l-53 -96z" />
<glyph unicode="&#xed;" horiz-adv-x="509" d="M63 0l218 1016l176 26l-221 -1042h-173zM271 1253l426 267l88 -158l-461 -205z" />
<glyph unicode="&#xee;" horiz-adv-x="509" d="M63 0l218 1016l176 26l-221 -1042h-173zM63 1239l404 277l295 -277l-74 -90l-246 174l-315 -174z" />
<glyph unicode="&#xef;" horiz-adv-x="509" d="M63 0l218 1016l176 26l-221 -1042h-173zM96 1272q0 43 31 73.5t74 30.5q45 0 75.5 -30.5t30.5 -73.5q0 -45 -29.5 -77t-74.5 -32t-76 32t-31 77zM518 1272q0 43 31 73.5t76 30.5q43 0 74.5 -30.5t31.5 -73.5q0 -45 -30.5 -77t-73.5 -32q-45 0 -77 32t-32 77z" />
<glyph unicode="&#xf1;" horiz-adv-x="1085" d="M70 0l155 729q23 104 23 156q0 43 -15 96l150 70q25 -72 25 -123q0 -45 -15 -103q164 217 395 217q94 0 148.5 -54t54.5 -148q0 -37 -6 -66l-166 -774h-162l148 690q16 76 16 111q0 102 -98 102q-166 0 -356 -237l-142 -666h-155zM342 1303q133 129 274 129q63 0 124 -38 t120 -38q70 0 160 80l39 -93q-133 -129 -277 -129q-63 0 -123.5 38t-120.5 38q-63 0 -157 -80z" />
<glyph unicode="&#xf2;" horiz-adv-x="1101" d="M90 342q0 303 162 506t405 203q172 0 263 -103q84 -96 84 -268q0 -301 -160 -504t-408 -203q-166 0 -256 97.5t-90 271.5zM266 332q0 -225 201 -226q170 0 268 179q92 165 92 413q0 221 -198 222q-168 0 -267 -170q-96 -162 -96 -418zM364 1362l88 158l422 -267l-53 -96z " />
<glyph unicode="&#xf3;" horiz-adv-x="1101" d="M90 342q0 303 162 506t405 203q172 0 263 -103q84 -96 84 -268q0 -301 -160 -504t-408 -203q-166 0 -256 97.5t-90 271.5zM266 332q0 -225 201 -226q170 0 268 179q92 165 92 413q0 221 -198 222q-168 0 -267 -170q-96 -162 -96 -418zM562 1253l426 267l88 -158 l-461 -205z" />
<glyph unicode="&#xf4;" horiz-adv-x="1101" d="M90 342q0 303 162 506t405 203q172 0 263 -103q84 -96 84 -268q0 -301 -160 -504t-408 -203q-166 0 -256 97.5t-90 271.5zM266 332q0 -225 201 -226q170 0 268 179q92 165 92 413q0 221 -198 222q-168 0 -267 -170q-96 -162 -96 -418zM350 1239l404 277l295 -277l-74 -90 l-246 174l-315 -174z" />
<glyph unicode="&#xf5;" horiz-adv-x="1101" d="M90 342q0 303 162 506t405 203q172 0 263 -103q84 -96 84 -268q0 -301 -160 -504t-408 -203q-166 0 -256 97.5t-90 271.5zM266 332q0 -225 201 -226q170 0 268 179q92 165 92 413q0 221 -198 222q-168 0 -267 -170q-96 -162 -96 -418zM369 1303q133 129 274 129 q63 0 124 -38t120 -38q70 0 160 80l39 -93q-133 -129 -277 -129q-63 0 -123.5 38t-120.5 38q-63 0 -157 -80z" />
<glyph unicode="&#xf6;" horiz-adv-x="1101" d="M90 342q0 303 162 506t405 203q172 0 263 -103q84 -96 84 -268q0 -301 -160 -504t-408 -203q-166 0 -256 97.5t-90 271.5zM266 332q0 -225 201 -226q170 0 268 179q92 165 92 413q0 221 -198 222q-168 0 -267 -170q-96 -162 -96 -418zM395 1272q0 43 31 73.5t74 30.5 q45 0 75.5 -30.5t30.5 -73.5q0 -45 -29.5 -77t-74.5 -32t-76 32t-31 77zM817 1272q0 43 31 73.5t76 30.5q43 0 74.5 -30.5t31.5 -73.5q0 -45 -30.5 -77t-73.5 -32q-45 0 -77 32t-32 77z" />
<glyph unicode="&#xf7;" horiz-adv-x="1744" d="M-47 -354q92 127 133 340l178 913h-104l22 121h105l26 137q63 326 351 326q125 0 200 -51l-59 -121q-70 47 -152 47q-143 0 -176 -180l-28 -158h434l26 137q63 326 351 326q125 0 200 -51l-59 -121q-70 47 -152 47q-143 0 -176 -180l-29 -158h596l-219 -1020h-170 l193 899h-422l-184 -928q-53 -264 -158 -397l-131 72q92 127 133 340l178 913h-434l-184 -928q-53 -264 -158 -397zM1497 1333q0 53 37 90t88 37q53 0 89 -36t36 -89q0 -51 -36 -88t-89 -37q-51 0 -88 36t-37 87z" />
<glyph unicode="&#xf8;" horiz-adv-x="1124" d="M23 -74l143 176q-57 96 -57 232q0 303 161.5 505.5t405.5 202.5q125 0 209 -55l137 170l88 -61l-149 -185q61 -92 61 -239q0 -301 -160 -504t-407 -203q-131 0 -215 62l-134 -162zM283 324q0 -39 6 -70l495 610q-51 49 -137 49q-168 0 -266 -166.5t-98 -422.5zM338 147 q49 -51 147 -51q170 0 271 180q92 166 92 414q0 47 -8 74z" />
<glyph unicode="&#xf9;" horiz-adv-x="1120" d="M115 170q0 72 16 149l148 693l163 30l-143 -686q-18 -88 -18 -133q0 -68 22.5 -94.5t77.5 -26.5q82 0 178 64q109 72 186 196l138 648l164 26l-154 -723q-20 -92 -21 -135q0 -57 48 -119l-125 -102q-88 86 -76 225q-182 -217 -389 -217q-215 0 -215 205zM391 1362l88 158 l422 -267l-53 -96z" />
<glyph unicode="&#xfa;" horiz-adv-x="1120" d="M115 170q0 72 16 149l148 693l163 30l-143 -686q-18 -88 -18 -133q0 -68 22.5 -94.5t77.5 -26.5q82 0 178 64q109 72 186 196l138 648l164 26l-154 -723q-20 -92 -21 -135q0 -57 48 -119l-125 -102q-88 86 -76 225q-182 -217 -389 -217q-215 0 -215 205zM584 1253 l426 267l88 -158l-461 -205z" />
<glyph unicode="&#xfb;" horiz-adv-x="1120" d="M115 170q0 72 16 149l148 693l163 30l-143 -686q-18 -88 -18 -133q0 -68 22.5 -94.5t77.5 -26.5q82 0 178 64q109 72 186 196l138 648l164 26l-154 -723q-20 -92 -21 -135q0 -57 48 -119l-125 -102q-88 86 -76 225q-182 -217 -389 -217q-215 0 -215 205zM383 1239 l404 277l295 -277l-74 -90l-246 174l-315 -174z" />
<glyph unicode="&#xfc;" horiz-adv-x="1120" d="M115 170q0 72 16 149l148 693l163 30l-143 -686q-18 -88 -18 -133q0 -68 22.5 -94.5t77.5 -26.5q82 0 178 64q109 72 186 196l138 648l164 26l-154 -723q-20 -92 -21 -135q0 -57 48 -119l-125 -102q-88 86 -76 225q-182 -217 -389 -217q-215 0 -215 205zM397 1272 q0 43 31 73.5t74 30.5q45 0 75.5 -30.5t30.5 -73.5q0 -45 -29.5 -77t-74.5 -32t-76 32t-31 77zM819 1272q0 43 31 73.5t76 30.5q43 0 74.5 -30.5t31.5 -73.5q0 -45 -30.5 -77t-73.5 -32q-45 0 -77 32t-32 77z" />
<glyph unicode="&#xff;" horiz-adv-x="956" d="M18 -311q86 8 181 94q70 63 131 217l-66 -8q4 141 -24 366l-84 650l168 34l69 -653q10 -90 6 -254h4l453 885h184l-471 -864q-154 -281 -161 -295q-80 -135 -154 -193q-84 -66 -199 -88zM327 1272q0 43 31 73.5t74 30.5q45 0 75.5 -30.5t30.5 -73.5q0 -45 -29.5 -77 t-74.5 -32t-76 32t-31 77zM749 1272q0 43 31 73.5t76 30.5q43 0 74.5 -30.5t31.5 -73.5q0 -45 -30.5 -77t-73.5 -32q-45 0 -77 32t-32 77z" />
<glyph unicode="&#x152;" horiz-adv-x="1732" d="M102 465q0 104 27 231q74 350 272 529q113 102 222 141q102 37 260 37h966l-51 -139h-575l-99 -459h482l-31 -146h-481l-109 -514h619l-33 -145l-901 -2q-176 0 -252 16q-94 23 -176 92q-139 119 -140 359zM285 471q0 -152 79.5 -244t213.5 -92q152 0 237 12l234 1098 q-111 14 -179 15q-258 0 -374 -146q-100 -125 -160 -323q-51 -174 -51 -320z" />
<glyph unicode="&#x153;" horiz-adv-x="1728" d="M117 334q0 303 161.5 505.5t405.5 202.5q229 0 309 -178q174 184 377 185q141 0 217 -71t76 -194q0 -125 -94 -213q-125 -117 -441 -116q-37 0 -127 4q-14 -66 -14 -129q0 -102 62 -164q55 -55 141 -55q168 0 299 116l67 -98q-80 -82 -167 -115q-96 -37 -246 -37 q-201 0 -289 168q-158 -180 -391 -180q-166 0 -256 97.5t-90 271.5zM293 324q0 -225 201 -226q170 0 268 178q92 166 92 414q0 221 -199 221q-168 0 -266 -170q-96 -162 -96 -417zM1028 580q29 -2 105 -2q240 0 317 77q51 51 51 125q0 141 -155 142q-100 0 -189.5 -93.5 t-128.5 -248.5z" />
<glyph unicode="&#x178;" horiz-adv-x="1099" d="M211 1405h199l151 -537q31 -106 39 -157q45 70 109 157l385 537h200l-639 -858l-116 -547h-174l118 557zM498 1599q0 43 30.5 74t73.5 31q45 0 76 -31t31 -74q0 -45 -30 -76.5t-75 -31.5t-75.5 31.5t-30.5 76.5zM920 1599q0 43 30.5 74t75.5 31q43 0 75 -31t32 -74 q0 -45 -31 -76.5t-74 -31.5q-45 0 -76.5 31.5t-31.5 76.5z" />
<glyph unicode="&#x2c6;" horiz-adv-x="823" d="M221 1239l404 277l295 -277l-74 -90l-246 174l-315 -174z" />
<glyph unicode="&#x2dc;" horiz-adv-x="778" d="M203 1303q133 129 274 129q63 0 124 -38t120 -38q70 0 160 80l39 -93q-133 -129 -277 -129q-63 0 -123.5 38t-120.5 38q-63 0 -157 -80z" />
<glyph unicode="&#x2000;" horiz-adv-x="947" />
<glyph unicode="&#x2001;" horiz-adv-x="1895" />
<glyph unicode="&#x2002;" horiz-adv-x="947" />
<glyph unicode="&#x2003;" horiz-adv-x="1895" />
<glyph unicode="&#x2004;" horiz-adv-x="631" />
<glyph unicode="&#x2005;" horiz-adv-x="473" />
<glyph unicode="&#x2006;" horiz-adv-x="315" />
<glyph unicode="&#x2007;" horiz-adv-x="315" />
<glyph unicode="&#x2008;" horiz-adv-x="236" />
<glyph unicode="&#x2009;" horiz-adv-x="379" />
<glyph unicode="&#x200a;" horiz-adv-x="105" />
<glyph unicode="&#x2010;" horiz-adv-x="618" d="M115 469l32 156h392l-33 -156h-391z" />
<glyph unicode="&#x2011;" horiz-adv-x="618" d="M115 469l32 156h392l-33 -156h-391z" />
<glyph unicode="&#x2012;" horiz-adv-x="618" d="M115 469l32 156h392l-33 -156h-391z" />
<glyph unicode="&#x2013;" horiz-adv-x="985" d="M0 512l27 121h993l-27 -121h-993z" />
<glyph unicode="&#x2014;" horiz-adv-x="1964" d="M260 512l27 121h1458l-27 -121h-1458z" />
<glyph unicode="&#x2018;" horiz-adv-x="532" d="M231 1061q0 145 121 264q82 82 195 131l53 -90q-133 -59 -176 -182q45 0 75.5 -38t30.5 -89q0 -68 -43 -109t-110 -41q-61 0 -103.5 43t-42.5 111z" />
<glyph unicode="&#x2019;" horiz-adv-x="532" d="M203 971q133 59 176 182q-45 0 -76 38t-31 89q0 68 43 109t111 41q61 0 103 -43t42 -111q0 -145 -120 -264q-82 -82 -195 -131z" />
<glyph unicode="&#x201a;" horiz-adv-x="546" d="M-29 -203q133 59 176 183q-45 0 -75.5 37.5t-30.5 88.5q0 68 43 109t111 41q61 0 103 -43t42 -111q0 -145 -121 -264q-82 -82 -194 -131z" />
<glyph unicode="&#x201c;" horiz-adv-x="933" d="M231 1061q0 131 121 264q68 74 195 131l53 -90q-133 -59 -176 -182q45 0 75.5 -38t30.5 -89q0 -68 -43 -109t-110 -41q-61 0 -103.5 43t-42.5 111zM637 1061q0 131 121 264q68 74 194 131l54 -90q-133 -59 -177 -182q45 0 76 -38t31 -89q0 -68 -43 -109t-111 -41 q-61 0 -103 43t-42 111z" />
<glyph unicode="&#x201d;" horiz-adv-x="940" d="M203 971q133 59 176 182q-45 0 -76 38t-31 89q0 68 43 109t111 41q61 0 103 -43t42 -111q0 -145 -120 -264q-82 -82 -195 -131zM608 971q133 59 176 182q-45 0 -75.5 38t-30.5 89q0 68 43 109t110 41q61 0 103.5 -43t42.5 -111q0 -145 -121 -264q-82 -82 -194 -131z" />
<glyph unicode="&#x201e;" horiz-adv-x="944" d="M-33 -203q133 59 176 183q-45 0 -75.5 37.5t-30.5 88.5q0 68 43 109t110 41q61 0 103.5 -43t42.5 -111q0 -145 -121 -264q-82 -82 -195 -131zM373 -203q133 59 176 183q-45 0 -76 37.5t-31 88.5q0 68 43 109t111 41q61 0 103 -43t42 -111q0 -145 -120 -264 q-82 -82 -195 -131z" />
<glyph unicode="&#x2022;" horiz-adv-x="1024" d="M201 725q0 150 105.5 256t256.5 106q150 0 256.5 -105t106.5 -257t-105.5 -257.5t-255.5 -105.5q-152 0 -258 106.5t-106 256.5z" />
<glyph unicode="&#x2026;" horiz-adv-x="1449" d="M18 115q0 57 39 96t97 39q59 0 99 -39t40 -96t-41 -99.5t-96 -42.5q-57 0 -97.5 41t-40.5 101zM489 115q0 57 39 96t97 39q59 0 99 -39t40 -96t-41 -99.5t-96 -42.5q-57 0 -97.5 41t-40.5 101zM961 115q0 57 38.5 96t96.5 39q59 0 99 -39t40 -96t-41 -99.5t-96 -42.5 q-57 0 -97 41t-40 101z" />
<glyph unicode="&#x202f;" horiz-adv-x="379" />
<glyph unicode="&#x2039;" horiz-adv-x="643" d="M119 500l407 430l111 -82l-354 -371l180 -356l-123 -68z" />
<glyph unicode="&#x203a;" horiz-adv-x="643" d="M31 135l354 371l-180 356l123 68l221 -447l-408 -430z" />
<glyph unicode="&#x205f;" horiz-adv-x="473" />
<glyph unicode="&#x2122;" horiz-adv-x="2027" d="M330 1286l22 119h625l-35 -119h-237l-158 -758h-137l155 758h-235zM936 528l264 877h184l48 -565q4 -49 4 -68q8 20 28 64l287 569h186l-102 -877h-141l80 637q0 4 2 9v8q0 -2 -3.5 -7.5t-5.5 -9.5l-325 -637h-119l-51 613q0 20 -6 55q-2 -20 -13 -55l-178 -613h-139z " />
<glyph unicode="&#xe000;" horiz-adv-x="1020" d="M0 0v1020h1020v-1020h-1020z" />
</font>
</defs>
</svg>
